<svg width="250" height="54" viewBox="0 0 250 54" fill="none" xmlns="http://www.w3.org/2000/svg">
<path d="M1.05064 1.51978V48.56C1.05064 48.8199 1.25322 49.0798 1.55708 49.0798C1.86094 49.0798 2.06351 48.8719 2.06351 48.56V2.03956H248.088V51.3669H1.50643C1.25322 51.3669 1 51.5748 1 51.8866C1 52.1465 1.20257 52.4064 1.50643 52.4064H248.494C248.747 52.4064 249 52.1985 249 51.8866V1.51978C249 1.25989 248.797 1 248.494 1H1.50643C1.25322 1.05198 1.05064 1.25989 1.05064 1.51978Z" fill="#4EFF01" stroke="#4EFF01" stroke-width="1.55252" stroke-miterlimit="10"/>
<path d="M21.0035 13.839H15.2808C15.0276 13.839 14.7744 14.0469 14.7744 14.3588V39.1524C14.7744 39.4123 14.977 39.6722 15.2808 39.6722C15.5341 39.6722 15.7873 39.4643 15.7873 39.1524V14.8266H20.4971V34.1625C20.4971 34.4224 20.6997 34.6823 21.0035 34.6823H31.9931V38.6326H18.4714C18.2182 38.6326 17.9649 38.8405 17.9649 39.1524C17.9649 39.4123 18.1675 39.6722 18.4714 39.6722H32.4489C32.7021 39.6722 32.9553 39.4643 32.9553 39.1524V34.1625C32.9553 33.9026 32.7528 33.6427 32.4489 33.6427H21.4593V14.3068C21.4593 14.0469 21.2568 13.839 21.0035 13.839Z" fill="#4EFF01" stroke="#4EFF01" stroke-width="1.55252" stroke-miterlimit="10"/>
<path d="M39.5897 16.6977C39.3365 16.6977 39.0832 16.9056 39.0832 17.2175V39.1523C39.0832 39.4122 39.2858 39.6721 39.5897 39.6721H57.8212C58.0745 39.6721 58.3277 39.4642 58.3277 39.1523V34.5262C58.3277 34.2663 58.1251 34.0065 57.8212 34.0065H45.2617V29.2764H56.6058C56.859 29.2764 57.1122 29.0685 57.1122 28.7567V23.9747C57.1122 23.7148 56.9097 23.4549 56.6058 23.4549H45.0085V18.8808H57.7706C58.0238 18.8808 58.277 18.6729 58.277 18.361V14.3067C58.277 14.0468 58.0745 13.7869 57.7706 13.7869H39.539C39.2858 13.7869 39.0326 13.9949 39.0326 14.3067C39.0326 14.5666 39.2352 14.8265 39.539 14.8265H57.2642V17.8412H44.5527C44.2995 17.8412 44.0463 18.0492 44.0463 18.361V23.9747C44.0463 24.2346 44.2488 24.4944 44.5527 24.4944H56.0994V28.2889H44.7553C44.5021 28.2889 44.2488 28.4968 44.2488 28.8086V34.5782C44.2488 34.8381 44.4514 35.098 44.7553 35.098H57.2642V38.6845H40.0455V17.2175C40.0961 16.9056 39.8429 16.6977 39.5897 16.6977Z" fill="#4EFF01" stroke="#4EFF01" stroke-width="1.55252" stroke-miterlimit="10"/>
<path d="M70.5841 34.0577L68.9635 38.6318H66.4313C66.1781 38.6318 65.9249 38.8397 65.9249 39.1516C65.9249 39.4115 66.1275 39.6714 66.4313 39.6714H69.318C69.5206 39.6714 69.7232 39.5154 69.7738 39.3595L71.445 34.7334H79.9025L81.523 39.3075C81.6243 39.5674 81.8269 39.7234 82.0801 39.7234H87.0432C87.2457 39.7234 87.4483 39.6194 87.5496 39.4635C87.6509 39.3075 87.7015 39.0996 87.6509 38.8917L79.4467 14.358C79.3454 14.0981 79.1428 13.9422 78.8389 13.9422H72.3566C72.1034 13.9422 71.8502 14.0981 71.7489 14.358L63.1902 39.0996C63.0889 39.3595 63.2408 39.6714 63.494 39.7234C63.5447 39.7234 63.5953 39.7753 63.646 39.7753C63.8485 39.7753 64.0511 39.6714 64.1018 39.4635L72.6098 14.9817H78.5857L86.5367 38.7877H82.3333L80.7127 34.2137C80.6115 33.9538 80.4089 33.7978 80.105 33.7978H71.1412C70.888 33.6419 70.6347 33.8498 70.5841 34.0577Z" fill="#4EFF01" stroke="#4EFF01" stroke-width="1.55252" stroke-miterlimit="10"/>
<path d="M78.838 29.7954C78.8886 30.0034 79.0912 30.1073 79.2937 30.1073C79.3444 30.1073 79.395 30.1073 79.4457 30.0553C79.6989 29.9514 79.8508 29.6915 79.7495 29.3796L76.0019 18.984C75.9006 18.7241 75.6474 18.5682 75.3942 18.5682C75.141 18.5682 74.8878 18.7241 74.8371 18.984L71.596 29.1717C71.5453 29.3796 71.5453 29.5875 71.6972 29.7435C71.7985 29.8994 72.0011 30.0034 72.2037 30.0034H76.3564C76.6097 30.0034 76.8629 29.7954 76.8629 29.4836C76.8629 29.2237 76.6603 28.9638 76.3564 28.9638H72.7101L75.4955 20.2834L78.838 29.7954Z" fill="#4EFF01" stroke="#4EFF01" stroke-width="1.55252" stroke-miterlimit="10"/>
<path d="M94.1826 13.8386C93.9294 13.8386 93.6761 14.0465 93.6761 14.3584V38.9441C93.6761 39.3599 93.98 39.6718 94.3852 39.6718H102.843C110.692 39.6718 116.212 34.2141 116.212 26.4173C116.212 18.6206 108.717 13.8386 103.349 13.8386H97.2212C96.968 13.8386 96.7147 14.0465 96.7147 14.3584C96.7147 14.6183 96.9173 14.8782 97.2212 14.8782H103.349C108.312 14.8782 115.2 19.2963 115.2 26.4173C115.2 33.7463 110.236 38.6842 102.843 38.6842H94.689V14.3064C94.6384 14.0465 94.4358 13.8386 94.1826 13.8386Z" fill="#4EFF01" stroke="#4EFF01" stroke-width="1.55252" stroke-miterlimit="10"/>
<path d="M104.059 33.6416H102.438C102.185 33.6416 101.932 33.8495 101.932 34.1614C101.932 34.4213 102.134 34.6812 102.438 34.6812H104.059C106.996 34.6812 111.098 31.7184 111.098 26.9364C111.098 22.1544 108.11 18.7758 103.805 18.7758H99.4501C99.0449 18.7758 98.7411 19.0877 98.7411 19.5035V34.0574C98.7411 34.3173 98.9437 34.5772 99.2475 34.5772C99.5007 34.5772 99.754 34.3693 99.754 34.0574V19.8154H103.856C107.604 19.8154 110.136 22.6742 110.136 26.9364C110.136 31.4065 106.236 33.6416 104.059 33.6416Z" fill="#4EFF01" stroke="#4EFF01" stroke-width="1.55252" stroke-miterlimit="10"/>
<path d="M122.746 39.1523C122.746 39.4122 122.949 39.6721 123.252 39.6721H128.671C128.924 39.6721 129.178 39.4642 129.178 39.1523V31.1477H132.976L137.787 39.3602C137.888 39.5161 138.04 39.6201 138.192 39.6201H143.915C144.067 39.6201 144.269 39.5161 144.32 39.3602C144.421 39.2043 144.421 38.9964 144.32 38.8404L139.357 29.9522C140.522 29.1725 143.51 26.7295 143.51 22.6752C143.51 17.0096 140.471 13.7869 135.154 13.7869H123.556C123.303 13.7869 123.05 13.9949 123.05 14.3067V36.0856C123.05 36.3455 123.252 36.6054 123.556 36.6054C123.809 36.6054 124.063 36.3974 124.063 36.0856V14.7745H135.154C141.585 14.7745 142.547 19.7125 142.547 22.6232C142.547 26.8335 138.901 29.0685 138.496 29.3284C138.395 29.3804 138.293 29.4844 138.243 29.6403C138.192 29.7442 138.243 29.9002 138.293 30.0041L143.105 38.5285H138.496L133.685 30.316C133.584 30.1601 133.432 30.0561 133.28 30.0561H128.722C128.469 30.0561 128.215 30.264 128.215 30.5759V38.5285H123.303C122.949 38.6325 122.746 38.8404 122.746 39.1523Z" fill="#4EFF01" stroke="#4EFF01" stroke-width="1.55252" stroke-miterlimit="10"/>
<path d="M128.317 21.3229C128.064 21.3229 127.811 21.5308 127.811 21.8427V26.2088C127.811 26.4687 128.013 26.7286 128.317 26.7286H133.229C136.471 26.7286 137.939 24.5455 137.939 22.3625C137.939 19.8155 136.319 18.2562 133.685 18.2562H128.317C128.064 18.2562 127.811 18.4641 127.811 18.776C127.811 19.0359 128.013 19.2957 128.317 19.2957H133.685C135.762 19.2957 136.926 20.4393 136.926 22.3625C136.926 23.9738 135.964 25.741 133.179 25.741H128.773V21.8946C128.824 21.5308 128.57 21.3229 128.317 21.3229Z" fill="#4EFF01" stroke="#4EFF01" stroke-width="1.55252" stroke-miterlimit="10"/>
<path d="M194.812 19.6596C197.142 19.6596 199.319 20.8551 200.636 22.8302C200.737 22.9862 200.94 23.0901 201.142 23.0381L206.511 22.1025C206.663 22.0506 206.815 21.9986 206.865 21.8426C206.916 21.6867 206.966 21.5308 206.865 21.3748C204.738 16.4889 200.028 13.3182 194.812 13.3182C190.254 13.3182 186.101 15.7092 183.671 19.6596C181.189 23.7139 180.986 28.7557 183.164 33.3818C184.278 35.7728 186.152 37.696 188.482 38.8395C190.558 39.8271 192.685 40.3469 194.812 40.3469C196.382 40.3469 197.952 40.087 199.421 39.5152C202.763 38.2158 205.447 35.5649 206.916 32.2383C206.966 32.0823 206.966 31.9264 206.916 31.7705C206.865 31.6145 206.713 31.5626 206.561 31.5106L203.776 30.9908C203.523 30.9388 203.27 31.1467 203.219 31.4066C203.168 31.6665 203.371 31.9264 203.624 31.9784L205.802 32.3422C204.434 35.1491 202.054 37.3841 199.167 38.4757C195.977 39.7231 192.381 39.4632 188.988 37.8519C186.861 36.8124 185.139 35.0451 184.126 32.914C182.101 28.5998 182.253 23.9218 184.582 20.1793C186.81 16.4889 190.71 14.3058 194.913 14.3058C199.522 14.3058 203.725 16.9567 205.802 21.1669L201.396 21.9466C199.876 19.8675 197.496 18.62 194.964 18.62C192.179 18.62 189.646 20.0754 188.178 22.5184C186.659 25.0133 186.608 28.08 187.975 30.9388C188.583 32.2383 189.596 33.2778 190.862 33.9536C195.47 36.4485 199.674 34.3694 201.649 31.4066C201.801 31.1987 201.75 30.8349 201.497 30.6789C201.294 30.523 200.991 30.575 200.788 30.8349C199.066 33.4338 195.369 35.201 191.267 33.018C190.254 32.4462 189.393 31.5626 188.836 30.471C187.621 27.9761 187.671 25.2732 188.988 23.0381C190.102 20.907 192.331 19.6596 194.812 19.6596Z" fill="#4EFF01" stroke="#4EFF01" stroke-width="1.55252" stroke-miterlimit="10"/>
<path d="M219.576 13.3188H214.157C213.904 13.3188 213.651 13.5267 213.651 13.8386C213.651 14.0985 213.853 14.3584 214.157 14.3584H219.069V23.8184C219.069 24.0783 219.272 24.3382 219.576 24.3382H223.577C223.779 24.3382 223.931 24.2342 224.032 24.0783L229.097 14.1504H233.958L227.172 26.5732C227.071 26.7292 227.071 26.9371 227.172 27.093L233.908 38.8921H229.35L223.475 29.0162C223.374 28.8603 223.222 28.7563 223.07 28.7563H219.576C219.323 28.7563 219.069 28.9642 219.069 29.2761V38.8921H214.866V17.2172C214.866 16.9573 214.663 16.6974 214.36 16.6974C214.106 16.6974 213.853 16.9053 213.853 17.2172V39.3599C213.853 39.6197 214.056 39.8796 214.36 39.8796H219.576C219.829 39.8796 220.082 39.6717 220.082 39.3599V29.7439H222.817L228.692 39.6197C228.793 39.7757 228.945 39.8796 229.097 39.8796H234.819C234.971 39.8796 235.174 39.7757 235.225 39.6197C235.326 39.4638 235.326 39.2559 235.225 39.1L228.185 26.7811L235.225 13.8386C235.326 13.6826 235.326 13.4747 235.225 13.3188C235.123 13.1629 234.971 13.0589 234.819 13.0589H228.793C228.59 13.0589 228.438 13.1629 228.337 13.3188L223.273 23.2466H220.082V13.8386C220.082 13.5267 219.88 13.3188 219.576 13.3188Z" fill="#4EFF01" stroke="#4EFF01" stroke-width="1.55252" stroke-miterlimit="10"/>
<path d="M163.007 34.0057C159.665 34.0057 156.778 31.5627 156.12 28.2361C156.069 27.9762 155.816 27.7683 155.563 27.8203C155.31 27.8723 155.107 28.1321 155.158 28.392C155.917 32.2384 159.209 34.9933 163.007 34.9933C167.413 34.9933 171.009 31.3028 171.009 26.7807C171.009 22.2586 167.413 18.5682 163.007 18.5682C159.209 18.5682 155.917 21.323 155.158 25.1694C155.107 25.4293 155.259 25.6892 155.563 25.7412C155.816 25.7931 156.069 25.6372 156.12 25.3253C156.778 21.9467 159.665 19.5557 163.007 19.5557C166.856 19.5557 169.996 22.7784 169.996 26.7287C170.047 30.783 166.907 34.0057 163.007 34.0057Z" fill="#4EFF01" stroke="#4EFF01" stroke-width="1.55252" stroke-miterlimit="10"/>
<path d="M175.111 25.3772C175.162 25.6371 175.364 25.845 175.668 25.845C175.921 25.793 176.124 25.5851 176.124 25.2732C175.364 18.4641 169.743 13.3182 163.058 13.3182C155.816 13.3182 149.891 19.3997 149.891 26.8325C149.891 34.2654 155.816 40.3469 163.058 40.3469C169.743 40.3469 175.364 35.201 176.124 28.3919C176.174 28.132 175.972 27.8721 175.668 27.8201C175.415 27.7682 175.162 27.9761 175.111 28.2879C174.402 34.5773 169.186 39.3073 163.007 39.3073C156.272 39.3073 150.853 33.6937 150.853 26.8325C150.853 19.9195 156.322 14.3578 163.007 14.3578C169.186 14.3058 174.402 19.0878 175.111 25.3772Z" fill="#4EFF01" stroke="#4EFF01" stroke-width="1.55252" stroke-miterlimit="10"/>
</svg>
