<svg width="93" height="152" viewBox="0 0 93 152" fill="none" xmlns="http://www.w3.org/2000/svg">
<path d="M48.8426 138.939C48.2568 139.525 48.2568 140.475 48.8426 141.061L58.3885 150.607C58.9743 151.192 59.924 151.192 60.5098 150.607C61.0956 150.021 61.0956 149.071 60.5098 148.485L52.0245 140L60.5098 131.515C61.0956 130.929 61.0956 129.979 60.5098 129.393C59.924 128.808 58.9743 128.808 58.3885 129.393L48.8426 138.939ZM0 3.5H71V0.5H0V3.5ZM89.5 22V120H92.5V22H89.5ZM71 138.5H49.9032V141.5H71V138.5ZM89.5 120C89.5 130.217 81.2173 138.5 71 138.5V141.5C82.8741 141.5 92.5 131.874 92.5 120H89.5ZM71 3.5C81.2173 3.5 89.5 11.7827 89.5 22H92.5C92.5 10.1259 82.8741 0.5 71 0.5V3.5Z" fill="#4EFF01"/>
</svg>
