<svg width="234" height="189" viewBox="0 0 234 189" fill="none" xmlns="http://www.w3.org/2000/svg">
<path d="M170.262 175.939C169.677 176.525 169.677 177.475 170.262 178.061L179.808 187.607C180.394 188.192 181.344 188.192 181.93 187.607C182.515 187.021 182.515 186.071 181.93 185.485L173.444 177L181.93 168.515C182.515 167.929 182.515 166.979 181.93 166.393C181.344 165.808 180.394 165.808 179.808 166.393L170.262 175.939ZM0 3.5H212V0.5H0V3.5ZM230.5 22V157H233.5V22H230.5ZM212 175.5H171.323V178.5H212V175.5ZM230.5 157C230.5 167.217 222.217 175.5 212 175.5V178.5C223.874 178.5 233.5 168.874 233.5 157H230.5ZM212 3.5C222.217 3.5 230.5 11.7827 230.5 22H233.5C233.5 10.1259 223.874 0.5 212 0.5V3.5Z" fill="#4EFF01"/>
</svg>
